<svg id="Layer_1" xmlns="http://www.w3.org/2000/svg" xmlns:xlink="http://www.w3.org/1999/xlink" viewBox="0 0 150 150"><style>.st0{fill:#b2b2b2}.st1{fill:#a88763}.st2{fill:#3b3b3b}.st3{fill:#fff}.st4{fill:#86694a}.st5{fill:#5c2d91}.st6{fill:#493726}.st7{fill:#333}.st10,.st8,.st9{fill-rule:evenodd;clip-rule:evenodd;fill:#808285}.st10,.st9{fill:#515050}.st10{fill:#2e2e2e}.st11{fill:#9a7b59}.st12{fill:#ae96c8}.st13{fill:#939393}.st14{fill:#505050}.st15{fill:#666}.st16{fill:#3c3c3c}.st17{fill:#212121}.st18,.st19{fill:none;stroke:#a6a6a6;stroke-miterlimit:10;stroke-dasharray:1,1}.st19{clip-path:url(#SVGID_2_)}.st20{fill:#d2d2d2}.st21{fill:#737373}.st22{fill:#65abe4}.st23{fill:#8cc1eb}.st24{fill:#b3d6f2}.st25{fill:#c8c8c8}.st26{fill:#69afe5}.st27{fill:#99bcd7}.st28{fill:#45779e}.st29{fill:#0078d4}.st30{fill:#a6a6a6}.st31{fill:#6597bf}.st32{fill:#2488d8}.st33{fill:#235a89}.st34{fill:#106ebe}.st35{fill:#1c4768}.st36{fill:#005a93}.st37{fill:#11334b}.st38{fill:#004578}.st39{fill:#cfe0ee}.st40{fill:#eaeaea}.st41{fill:#deecf9}.st42{fill:#e9f0f7}.st43{fill:#f4f4f4}.st44{fill:#231f20}.st45{fill-rule:evenodd;clip-rule:evenodd;fill:#fff200}.st46{fill:none;stroke:#fff100;stroke-width:.72;stroke-miterlimit:8}.st47,.st48,.st49,.st50,.st51{fill-rule:evenodd;clip-rule:evenodd;fill:#fff880}.st48,.st49,.st50,.st51{fill:#f0e300}.st49,.st50,.st51{fill:#ccc000}.st50,.st51{fill:#ffb900}.st51{fill:#ffcb40}.st52,.st53,.st54,.st55,.st56,.st57{fill-rule:evenodd;clip-rule:evenodd;fill:#f0ae00}.st53,.st54,.st55,.st56,.st57{fill:#c78e00}.st54,.st55,.st56,.st57{fill:#ff8c00}.st55,.st56,.st57{fill:#ffa940}.st56,.st57{fill:#f08400}.st57{fill:#ba6800}.st58,.st59,.st60,.st61,.st62,.st63{fill-rule:evenodd;clip-rule:evenodd;fill:#e81123}.st59,.st60,.st61,.st62,.st63{fill:#ee4d5a}.st60,.st61,.st62,.st63{fill:#d91021}.st61,.st62,.st63{fill:#a3111e}.st62,.st63{fill:#b4009e}.st63{fill:#c740b6}.st64,.st65,.st66,.st67,.st68,.st69{fill-rule:evenodd;clip-rule:evenodd;fill:#9e008b}.st65,.st66,.st67,.st68,.st69{fill:#850063}.st66,.st67,.st68,.st69{fill:#5c2d91}.st67,.st68,.st69{fill:#8562ad}.st68,.st69{fill:#522882}.st69{fill:#401467}.st70,.st71,.st72,.st73,.st74,.st75{fill-rule:evenodd;clip-rule:evenodd;fill:#0078d4}.st71,.st72,.st73,.st74,.st75{fill:#409ae1}.st72,.st73,.st74,.st75{fill:#006fc8}.st73,.st74,.st75{fill:#005291}.st74,.st75{fill:#008272}.st75{fill:#40a195}.st76,.st77,.st78,.st79,.st80,.st81{fill-rule:evenodd;clip-rule:evenodd;fill:#007365}.st77,.st78,.st79,.st80,.st81{fill:#005850}.st78,.st79,.st80,.st81{fill:#107c10}.st79,.st80,.st81{fill:#4c9d4c}.st80,.st81{fill:#0e6d0e}.st81{fill:#106110}.st82,.st83,.st84,.st85,.st86,.st87{fill-rule:evenodd;clip-rule:evenodd;fill:#e3008c}.st83,.st84,.st85,.st86,.st87{fill:#ea40a9}.st84,.st85,.st86,.st87{fill:#d40083}.st85,.st86,.st87{fill:#9c005f}.st86,.st87{fill:#b4a0ff}.st87{fill:#c7b8ff}.st88,.st89,.st90,.st91,.st92,.st93{fill-rule:evenodd;clip-rule:evenodd;fill:#a996f0}.st89,.st90,.st91,.st92,.st93{fill:#9080cf}.st90,.st91,.st92,.st93{fill:#00bcf2}.st91,.st92,.st93{fill:#40cdf5}.st92,.st93{fill:#00b0e3}.st93{fill:#0086ad}.st94,.st95,.st96,.st97,.st98,.st99{fill-rule:evenodd;clip-rule:evenodd;fill:#002050}.st95,.st96,.st97,.st98,.st99{fill:#40587c}.st96,.st97,.st98,.st99{fill:#001a41}.st97,.st98,.st99{fill:#001129}.st98,.st99{fill:#00b294}.st99{fill:#40c5af}.st100,.st101,.st102,.st103,.st104,.st105{fill-rule:evenodd;clip-rule:evenodd;fill:#00a387}.st101,.st102,.st103,.st104,.st105{fill:#008770}.st102,.st103,.st104,.st105{fill:#bad80a}.st103,.st104,.st105{fill:#cbe247}.st104,.st105{fill:#adc909}.st105{fill:#91a80a}.st106,.st107,.st108,.st109,.st110,.st111{fill-rule:evenodd;clip-rule:evenodd;fill:#d83b01}.st107,.st108,.st109,.st110,.st111{fill:#e26c41}.st108,.st109,.st110,.st111{fill:#bd3604}.st109,.st110,.st111{fill:#9c2801}.st110,.st111{fill:#a80000}.st111{fill:#be4040}.st112,.st113,.st114,.st115,.st116,.st117{fill-rule:evenodd;clip-rule:evenodd;fill:#900}.st113,.st114,.st115,.st116,.st117{fill:#750000}.st114,.st115,.st116,.st117{fill:#5c005c}.st115,.st116,.st117{fill:#854085}.st116,.st117{fill:#4d004d}.st117{fill:#380038}.st118,.st119,.st120,.st121,.st122,.st123{fill-rule:evenodd;clip-rule:evenodd;fill:#32145a}.st119,.st120,.st121,.st122,.st123{fill:#654f83}.st120,.st121,.st122,.st123{fill:#28114a}.st121,.st122,.st123{fill:#220c3d}.st122,.st123{fill:#00188f}.st123{fill:#4052ab}.st124,.st125,.st126,.st127,.st128,.st129{fill-rule:evenodd;clip-rule:evenodd;fill:#001580}.st125,.st126,.st127,.st128,.st129{fill:#001363}.st126,.st127,.st128,.st129{fill:#004b50}.st127,.st128,.st129{fill:#40787c}.st128,.st129{fill:#003d41}.st129{fill:#002f33}.st130,.st131,.st132,.st133,.st134,.st135{fill-rule:evenodd;clip-rule:evenodd;fill:#004b1c}.st131,.st132,.st133,.st134,.st135{fill:#407855}.st132,.st133,.st134,.st135{fill:#003c16}.st133,.st134,.st135{fill:#00240d}.st134,.st135{fill:#505050}.st135{fill:#282828}.st136,.st137,.st138,.st139,.st140,.st141{fill-rule:evenodd;clip-rule:evenodd;fill:#d2d2d2}.st137,.st138,.st139,.st140,.st141{fill:#f3f3f3}.st138,.st139,.st140,.st141{fill:#e6e6e6}.st139,.st140,.st141{fill:#939393}.st140,.st141{fill:#737373}.st141{fill:#c2c2c2}.st142{fill:#b2b2b2}.st142,.st143,.st144{fill-rule:evenodd;clip-rule:evenodd}.st144{fill:#fff}.st145{fill:none;stroke:#e6e6e6;stroke-width:.36;stroke-miterlimit:8}.st146,.st147,.st148,.st149,.st150{fill-rule:evenodd;clip-rule:evenodd;fill:#8e562e}.st147,.st148,.st149,.st150{fill:#d8b094}.st148,.st149,.st150{fill:#bb9167}.st149,.st150{fill:#613d30}.st150{fill:#f7d7c4}.st151{fill:#90c10c}.st152{fill:#65aa0d}.st153{fill:#3b930f}.st154{fill:#00a68c}.st155{fill:#009a83}.st156{fill:#008e7b}.st157{fill:#00abeb}.st158{fill:#009ae4}.st159{fill:#0089de}.st160{fill:#0060c5}.st161{fill:#0048b3}.st162{fill:#0030a1}.st163{fill:#00746a}.st164{fill:#006761}.st165{fill:#005959}.st166{fill:#0c7013}.st167{fill:#086416}.st168{fill:#045719}.st169{fill:#522783}.st170{fill:#472176}.st171{fill:#3d1a68}.st172{fill:#9e008e}.st173{fill:#88007d}.st174{fill:#72006d}.st175{fill:#d80d1a}.st176{fill:#c80912}.st177{fill:#b80409}.st178{fill:#9e83e3}.st179{fill:#8867c8}.st180{fill:#724aad}.st181{fill:#f57800}.st182{fill:#ec6401}.st183{fill:#e24f01}.st184{fill:#464646}.st185{fill:#323232}.st186{fill:#a88663}.st187{fill:#8e6b4e}.st188{fill:#4d4c4d}.st189{fill:#2f2f2f}.st190{fill:#9b2438}.st191{fill:#ff8c00}.st192{fill:#d07f1c}.st193{fill:#fff880}.st194{fill:gray}.st195{fill:#002050}.st196{fill:#ce9c5f}.st197{fill:#f3f3f3}.st198{fill:#f6caa7}.st199{fill:#2f60e0}.st200{clip-path:url(#SVGID_4_);fill:#737373}.st201{fill:#8f8f8f}.st202{fill:#2139b5}.st203{fill:#001129}.st204{fill:#282828}.st205{fill:#ba8c57}.st206{fill:#301d19}.st207{fill:#e81123}.st208{fill:#004880}.st209{fill:#cb8c84}.st210{fill:#a57b55}.st211{fill:#005496}.st212{fill:#8e562e}.st213{fill:#001a41}.st214{fill:#1a86db}.st215{fill:none}.st216{fill:#0060ac}.st217{fill:#bb9167}.st218{fill:#b28760}.st219{fill:#00122d}.st220{fill:#263c5d}.st221,.st222{clip-path:url(#SVGID_6_);fill:#737373}.st222{clip-path:url(#SVGID_8_)}.st223{fill:#9c2801}.st224{fill:#0e3c5e}.st225{fill:#0757a4}</style><switch><g><path class="st0" d="M138.161 141H9.724c-1.485 0-2.869-.999-3.123-2.463A3.002 3.002 0 0 1 9.554 135h128.437c1.485 0 2.869.999 3.123 2.463a3.002 3.002 0 0 1-2.953 3.537z"/><path class="st196" d="M22.322 83.523c-.197 2.865.197 3.752 1.377 6.016.797 1.281 1.487 1.477 1.487.69.293 1.474 1.871 1.978 1.674.884.197.394.787.887 1.281.59.394-.293-.1-.984-.297-1.277.494 0 .984-.494.394-1.477-.494-.79-.494-1.477-.494-1.477.887.687 1.577.687 1.774.097-.787-.787-1.477-2.371-2.364-3.552l-.59-.59-.69-6.41-4.142 2.364.59 4.142z"/><path class="st198" d="M50.215 43.888c.097.197 0 .394-.197.494-.197.1-.394 0-.494-.197s0-.5.197-.5c.198-.1.494 0 .494.203z"/><path class="st0" d="M50.215 43.888c.097.197 0 .394-.197.494-.197.1-.394 0-.494-.197s0-.5.197-.5c.198-.1.494 0 .494.203z"/><path class="st14" d="M121.625 136.125c-15.371-48.219-16.307-50.731-16.307-50.731l.49-.197C101.566 73.759 102 73.759 102 73.759V41.911c1.24-.59 2.431-2.164 2.431-3.939a4.21 4.21 0 0 0-4.242-4.242 4.205 4.205 0 0 0-4.235 4.242c0 1.774 1.184 3.348 3.046 3.939v31.848l-4.434 11.439.504.197c-15.381 48.219-16.219 51.265-16.219 51.265-.097.394.1.993.59 1.092.494.197.987 0 1.184-.501 15.277-48.22 16.116-51.265 16.116-51.265l.494.207c.849-1.983 1.391-3.358 1.391-3.358L98.208 87H99v52.114c.078.496.577.721 1.125.678.492-.039.859-.198.875-.745V87h1l.083-4.167 1.06 3.358.49-.207c15.381 48.22 16.317 50.731 16.317 50.731.097.501.687.697 1.081.501.494-.098.791-.697.594-1.091z"/><path class="st21" d="M88.167 39.943l-29.574 7.293-2.955-9.164L83.925 26.73z"/><path class="st21" d="M88.167 39.943l-29.574 7.293-2.955-9.164L83.925 26.73z"/><path class="st14" d="M76.138 42.898l2.961-.691-3.849-11.932-2.854 1.084z"/><path class="st21" d="M130.55 31.459L79.689 44.085 74.66 28.404l48.596-19.522z"/><path class="st26" d="M134.095 28.404c2.858-1.968 3.842-6.606 2.364-11.339-1.577-4.736-5.122-7.887-8.477-7.887l6.113 19.226z"/><path class="st199" d="M129.756 13.017c2.174 0 4.242.7 5.816 1.881-1.771-3.455-4.726-5.719-7.59-5.719l1.181 3.838h.593z"/><path class="st21" d="M136.853 31.259l-5.91 1.881-8.277-25.939 5.81-1.871z"/><path class="st14" d="M127.588 32.156l2.962-.697-7.294-22.577-2.864 1.184 5.326 16.467z"/><defs><path id="SVGID_7_" d="M75.547 31.062l.197.594z"/></defs><clipPath id="SVGID_2_"><use xlink:href="#SVGID_7_" overflow="visible"/></clipPath><path clip-path="url(#SVGID_2_)" fill="#737373" d="M75.547 31.065h.197v.591h-.197z"/><path class="st201" d="M121.976 14.995L75.547 31.062l.197.594.59 1.681 46.429-16.075-.394-1.084z"/><path class="st21" d="M122.369 16.178l.394 1.084-.394-1.084z"/><path class="st201" d="M130.453 11.246l-5.719 1.971 1.18 3.748 5.72-1.97z"/><path class="st21" d="M124.734 13.217l1.18 3.748z"/><path class="st196" d="M54.064 48.32c-.69-2.758-1.477-3.445-3.151-5.226-1.091-.987-1.781-.887-1.684-.197-.687-1.281-2.264-1.281-1.771-.297-.297-.297-.984-.59-1.377-.197-.297.394.394.984.687 1.181-.49.1-.887.697 0 1.387.69.59.887 1.281.887 1.281-.984-.394-1.574-.097-1.574.394.984.59 2.068 1.871 3.248 2.658.297.1.494.197.787.297l2.568 5.819 3.151-3.448-1.771-3.652z"/><path class="st196" d="M62.898 64.668c-1.464-2.75-9.358-17.074-9.358-17.074l-3.681 1.331s2.707 6.336 5.085 11.844l-6.009-2.093-2.364 8.871 13.41 1.387v-.011c.157.015.33.031.522.047 1.552.132 3.858-1.553 2.395-4.302zM29.419 92.501c.69-.797 1.674.69 2.071.984.884.494 1.574.197 1.674-.293-.887-.59-1.874-1.978-2.955-2.865l-.79 2.174z"/><path class="st21" d="M49.822 43.791l-3.645 1.478.493 1.674 3.742-1.184z"/><path class="st21" d="M45.29 45.466l.69 1.771c0 .1.1.1.1.1l.687-.197c.1-.1.1-.1.1-.197l-.59-1.774c0-.097-.1-.097-.197-.097l-.69.197c0 .097-.1.097-.1.197zM61.161 44.482L51.109 47.73l-1.881-5.623 10.055-3.248z"/><path class="st201" d="M53.57 42.107l-3.848 1.281v.197l.197.697 3.948-1.384z"/><path class="st14" d="M49.425 46.056l.987-.297-.59-1.968-.987.394zM55.048 46.449l2.954-.983-1.871-5.623-2.854.987z"/><path class="st201" d="M73.283 34.32L59.38 39.156l.5 1.574 13.993-4.832-.197-.591z"/><path class="st21" d="M73.676 35.307l.197.59-.197-.59z"/><path class="st201" d="M59.38 39.156l-3.052 1.08v.1l.494 1.478 3.058-1.084z"/><path class="st21" d="M56.328 40.236h-.1l.1.1z"/><path class="st196" d="M49.822 47.04c-.594.787-1.774-.59-2.168-.787-.984-.394-1.574-.097-1.574.394.984.59 1.968 1.774 3.148 2.561l.594-2.168z"/><path class="st202" d="M47.161 89.933c-.097 2.568-2.264 4.636-4.826 4.539-2.568 0-3.848-2.168-3.848-4.836.1-2.558 1.477-4.636 4.049-4.535 2.657.097 4.625 2.271 4.625 4.832z"/><path class="st195" d="M45.88 109.946l-7.884-.197.49-20.113 8.675.297z"/><path class="st195" d="M29.619 99.601c0-.69 3.445-1.978 7.787-1.978 4.232 0 7.687 1.287 7.687 1.978l1.577-13.91H29.619v13.91z"/><path class="st195" d="M28.142 89.833c-.197 2.668 1.771 4.836 4.429 5.032 2.571.097 5.523-1.871 5.719-4.439.197-2.561-2.558-4.836-5.226-4.932-2.561-.196-4.726 1.781-4.922 4.339z"/><path class="st195" d="M27.745 109.946l7.79.503 2.755-20.022-10.148-.594z"/><path class="st203" d="M33.564 135.197l-4.932-.295.297-5.524 4.538.297z"/><path class="st204" d="M33.761 137.856h-4.242l-.197-.591c-1.281.295-4.332.689-5.819.689-1.181 0-2.855-.099-3.642-.493-.1 0-.297-.295-.297-.492.197-1.773 7-2.462 8.774-4.538h.097c.494.492 1.084 1.379 2.168 1.379.984 0 2.164-.886 2.665-1.28.493.492.593 5.227.493 5.326z"/><path class="st195" d="M35.535 110.449c.097-2.178-1.577-4.049-3.752-4.145-2.164-.1-3.939 1.574-4.039 3.742-.097 2.174 1.477 3.949 3.645 4.145 2.175.097 4.046-1.577 4.146-3.742z"/><path class="st195" d="M35.535 110.449l-7.79-.403-.787 23.469 7.1.894z"/><path class="st203" d="M38.093 134.606l4.932.099.197-5.423-4.635-.197z"/><path class="st204" d="M37.699 137.856l4.235.099.203-.591c1.281.295 4.335.788 5.813.788 1.081 0 2.755 0 3.552-.394.197-.098.394-.295.394-.591-.097-1.674-7-2.462-8.674-4.538h-.197c-.49.394-.984 1.28-2.174 1.28-.984 0-2.068-.985-2.561-1.379-.591.492-.687 5.227-.591 5.326z"/><path class="st195" d="M37.996 109.849c.097-2.168 1.871-3.939 4.045-3.842 2.168.1 3.838 1.871 3.742 4.039 0 2.174-1.774 3.848-3.949 3.748-2.164 0-3.838-1.87-3.838-3.945z"/><path class="st195" d="M37.996 109.849l7.787.197-.984 23.469-7.196.295z"/><path class="st196" d="M42.929 58.382l.394-4.932-6.016-.494-.394 4.836c-.1 1.181.59 2.461 2.855 2.658 2.167.196 3.061-.985 3.161-2.068z"/><path class="st205" d="M36.812 53.056c1.674 2.364 3.348 3.652 6.213 4.736l.394-4.639-6.506-1.277-.101 1.18z"/><path class="st196" d="M46.374 52.562c-.787-.984-1.377-3.158-1.377-3.158-.1-.1 0-.297.197-.394l.59-.197c.197-.1.297-.394.197-.494l-1.574-1.968c-.1-.1-.197-.297-.297-.494l-1.281-2.865-9.361 1.978.293 1.381-1.191.197s.297 11.635 13.41 6.9c.394-.099.59-.589.394-.886z"/><path class="st206" d="M33.861 42.701c1.281-1.281 3.838-2.561 6.4-3.055 1.477-.197 2.961.1 3.258 1.477.394 2.168-1.684 2.561-2.668 2.668l-1.377.293c-.494.1-.787.69-.59 1.184l1.377 2.855-.69.494c-.197.097-.293 0-.394-.1-.394-.49-1.281-1.574-2.164-.984-1.084.69-.494 1.771 0 2.164.49.504 1.181.6 1.377 1.191.097.394.787 2.264-1.181 3.252-2.364-.887-3.742-2.561-4.442-4.039-.984-1.978-.984-4.342.197-6.31.2-.403.503-.797.897-1.09z"/><path d="M43.222 46.646c0 .197-.097.394-.394.494-.197 0-.394-.1-.394-.297-.1-.293.1-.49.297-.49.198-.1.394.096.491.293z"/><path class="st203" d="M28.042 93.091l8.87.791 1.181-5.033-.293 5.033 8.967.883v.591l-8.871-.294-.687-1.18-.493 1.18-8.674.49z"/><path class="st208" d="M39.374 80.962c0 .2-.293.397-.49.397s-.397-.197-.397-.494c0-.197.2-.394.494-.394.196.098.393.295.393.491zM38.883 86.685c-.1.293-.297.49-.494.394a.424.424 0 0 1-.394-.394c0-.297.197-.397.49-.397.202 0 .398.2.398.397z"/><path class="st209" d="M45.39 50.495l-2.758 1.084s1.477.69 3.151 0l-.393-1.084z"/><path class="st3" d="M45.39 50.495l-2.758 1.084s1.377.494 3.051-.197l-.293-.887z"/><path class="st223" d="M46.767 94.765L27.625 93.25l2-25-2.875 1-3.25-6.625s6.875-3.75 8.5-4.5 4.244-.819 4.244-.819 1.806 2.572 3.681 2.572 3.725-2.35 3.725-2.35 3.719.448 5.284 1.148 6.335 2.223 6.335 2.223l-.395 7.727L49.375 68l-2.608 26.765z"/><path class="st183" d="M43.129 57.39a3.435 3.435 0 0 1-2.982 1.744c-1.367 0-2.635-.853-3.193-2.006l-1.818.222c.691 1.988 2.788 3.42 5.011 3.42a5.087 5.087 0 0 0 4.68-3.095l-1.698-.285zM53.54 68.57l.976-7.983 1.729.666-.798 7.495z"/><path class="st196" d="M22.23 82.895c-.309-1.952-2.129-12.817-2.439-14.813s-.028-3.421 1.818-4.391c1.774-.931 3.06-1.508 3.06-1.508l2.484 6.253-1.685.71 1.153 16.01c-.001.001-3.815 1.376-4.391-2.261z"/><path class="st183" d="M25.068 61.741l3.149 7.007-1.73.665-3.193-6.786z"/></g></switch></svg>